<!-- sample rectangle -->
<svg width="231" height="123" viewBox="0 0 231 123" fill="none" xmlns="http://www.w3.org/2000/svg">
<path d="M47 99.5C47 112.479 36.4787 123 23.5 123V123C10.5213 123 3.57221e-06 112.479 4.70684e-06 99.5V99.5C5.84148e-06 86.5213 10.5213 76 23.5 76L47 76L47 99.5Z" fill="#D0D5FF"/>
<path d="M32.5 68C24.4919 68 18 61.5081 18 53.5V53.5C18 45.4919 24.4919 39 32.5 39V39C40.5081 39 47 45.4919 47 53.5L47 68L32.5 68Z" fill="#D0D5FF"/>
<path d="M128 76C138.493 76 147 84.5066 147 95V95C147 105.493 138.493 114 128 114L81.2857 114C66.7685 114 55 102.231 55 87.7143L55 76L128 76Z" fill="#D0D5FF"/>
<path d="M55 40C55 17.9086 72.9086 0 95 0L197 0C215.778 0 231 15.2223 231 34V34C231 52.7777 215.778 68 197 68L55 68L55 40Z" fill="#6965F6"/>
<path d="M70.1602 34.6797V32.5H75.3164V27.4375H77.4844V32.5H82.6406V34.6797H77.4844V39.7422H75.3164V34.6797H70.1602ZM97.2305 40.4336H103.969V43H91.8164L98.0977 35.3945C98.7148 34.6367 99.2305 33.9805 99.6445 33.4258C100.066 32.8711 100.387 32.4062 100.605 32.0312C101.051 31.2969 101.273 30.6367 101.273 30.0508C101.273 29.207 100.977 28.5 100.383 27.9297C99.7891 27.3594 99.0547 27.0742 98.1797 27.0742C96.3516 27.0742 95.3047 28.1562 95.0391 30.3203H92.3203C92.7578 26.5078 94.6836 24.6016 98.0977 24.6016C99.7461 24.6016 101.129 25.125 102.246 26.1719C103.371 27.2188 103.934 28.5156 103.934 30.0625C103.934 31.0469 103.672 32.0117 103.148 32.957C102.883 33.4492 102.492 34.0352 101.977 34.7148C101.469 35.3867 100.824 36.1836 100.043 37.1055L97.2305 40.4336ZM118.652 27.4609H113.074L112.184 30.4609C112.316 30.4453 112.441 30.4336 112.559 30.4258C112.684 30.418 112.797 30.4141 112.898 30.4141C114.656 30.4141 116.098 31.0078 117.223 32.1953C118.355 33.375 118.922 34.8867 118.922 36.7305C118.922 38.6367 118.281 40.207 117 41.4414C115.719 42.6758 114.105 43.293 112.16 43.293C109.762 43.293 107.871 42.168 106.488 39.918L108.551 38.1719C109.121 39.1406 109.695 39.8242 110.273 40.2227C110.852 40.6133 111.559 40.8086 112.395 40.8086C113.488 40.8086 114.406 40.4258 115.148 39.6602C115.891 38.8711 116.262 37.9141 116.262 36.7891C116.262 35.6328 115.895 34.6875 115.16 33.9531C114.426 33.1953 113.508 32.8164 112.406 32.8164C111.18 32.8164 110.121 33.3516 109.23 34.4219H108.328L111.176 24.9062H118.652V27.4609ZM132.551 23.207V32.9102C133.605 31.8164 134.801 31.2695 136.137 31.2695C137.676 31.2695 138.957 31.8438 139.98 32.9922C141.004 34.1328 141.516 35.5547 141.516 37.2578C141.516 39.0156 141 40.4688 139.969 41.6172C138.945 42.7578 137.652 43.3281 136.09 43.3281C134.77 43.3281 133.59 42.8203 132.551 41.8047V43H129.914V23.207H132.551ZM138.82 37.375C138.82 36.2812 138.523 35.3906 137.93 34.7031C137.328 34 136.574 33.6484 135.668 33.6484C134.699 33.6484 133.91 33.9883 133.301 34.668C132.699 35.3398 132.398 36.2148 132.398 37.293C132.398 38.4023 132.695 39.2891 133.289 39.9531C133.883 40.6328 134.664 40.9727 135.633 40.9727C136.547 40.9727 137.305 40.6328 137.906 39.9531C138.516 39.2656 138.82 38.4062 138.82 37.375ZM143.766 37.2109C143.766 35.5625 144.355 34.1602 145.535 33.0039C146.715 31.8477 148.152 31.2695 149.848 31.2695C151.551 31.2695 152.996 31.8516 154.184 33.0156C155.355 34.1797 155.941 35.6094 155.941 37.3047C155.941 39.0156 155.352 40.4492 154.172 41.6055C152.984 42.7539 151.527 43.3281 149.801 43.3281C148.09 43.3281 146.656 42.7422 145.5 41.5703C144.344 40.4141 143.766 38.9609 143.766 37.2109ZM146.461 37.2578C146.461 38.3984 146.766 39.3008 147.375 39.9648C148 40.6367 148.824 40.9727 149.848 40.9727C150.879 40.9727 151.703 40.6406 152.32 39.9766C152.938 39.3125 153.246 38.4258 153.246 37.3164C153.246 36.207 152.938 35.3203 152.32 34.6562C151.695 33.9844 150.871 33.6484 149.848 33.6484C148.84 33.6484 148.023 33.9844 147.398 34.6562C146.773 35.3281 146.461 36.1953 146.461 37.2578ZM158.742 31.5859H161.391V32.6406C162.312 31.7266 163.352 31.2695 164.508 31.2695C165.836 31.2695 166.871 31.6875 167.613 32.5234C168.254 33.2344 168.574 34.3945 168.574 36.0039V43H165.926V36.625C165.926 35.5 165.77 34.7227 165.457 34.293C165.152 33.8555 164.598 33.6367 163.793 33.6367C162.918 33.6367 162.297 33.9258 161.93 34.5039C161.57 35.0742 161.391 36.0703 161.391 37.4922V43H158.742V31.5859ZM174.551 31.5859V38.1367C174.551 40.0273 175.297 40.9727 176.789 40.9727C178.281 40.9727 179.027 40.0273 179.027 38.1367V31.5859H181.664V38.1953C181.664 39.1094 181.551 39.8984 181.324 40.5625C181.105 41.1562 180.727 41.6914 180.188 42.168C179.297 42.9414 178.164 43.3281 176.789 43.3281C175.422 43.3281 174.293 42.9414 173.402 42.168C172.855 41.6914 172.469 41.1562 172.242 40.5625C172.023 40.0312 171.914 39.2422 171.914 38.1953V31.5859H174.551ZM191.625 33.5312L189.445 34.6914C189.102 33.9883 188.676 33.6367 188.168 33.6367C187.926 33.6367 187.719 33.7188 187.547 33.8828C187.375 34.0391 187.289 34.2422 187.289 34.4922C187.289 34.9297 187.797 35.3633 188.812 35.793C190.211 36.3945 191.152 36.9492 191.637 37.457C192.121 37.9648 192.363 38.6484 192.363 39.5078C192.363 40.6094 191.957 41.5312 191.145 42.2734C190.355 42.9766 189.402 43.3281 188.285 43.3281C186.371 43.3281 185.016 42.3945 184.219 40.5273L186.469 39.4844C186.781 40.0312 187.02 40.3789 187.184 40.5273C187.504 40.8242 187.887 40.9727 188.332 40.9727C189.223 40.9727 189.668 40.5664 189.668 39.7539C189.668 39.2852 189.324 38.8477 188.637 38.4414C188.371 38.3086 188.105 38.1797 187.84 38.0547C187.574 37.9297 187.305 37.8008 187.031 37.668C186.266 37.293 185.727 36.918 185.414 36.543C185.016 36.0664 184.816 35.4531 184.816 34.7031C184.816 33.7109 185.156 32.8906 185.836 32.2422C186.531 31.5938 187.375 31.2695 188.367 31.2695C189.828 31.2695 190.914 32.0234 191.625 33.5312ZM205.137 37.9141H196.957C197.027 38.8516 197.332 39.5977 197.871 40.1523C198.41 40.6992 199.102 40.9727 199.945 40.9727C200.602 40.9727 201.145 40.8164 201.574 40.5039C201.996 40.1914 202.477 39.6133 203.016 38.7695L205.242 40.0117C204.898 40.5977 204.535 41.1016 204.152 41.5234C203.77 41.9375 203.359 42.2812 202.922 42.5547C202.484 42.8203 202.012 43.0156 201.504 43.1406C200.996 43.2656 200.445 43.3281 199.852 43.3281C198.148 43.3281 196.781 42.7812 195.75 41.6875C194.719 40.5859 194.203 39.125 194.203 37.3047C194.203 35.5 194.703 34.0391 195.703 32.9219C196.711 31.8203 198.047 31.2695 199.711 31.2695C201.391 31.2695 202.719 31.8047 203.695 32.875C204.664 33.9375 205.148 35.4102 205.148 37.293L205.137 37.9141ZM202.43 35.7578C202.062 34.3516 201.176 33.6484 199.77 33.6484C199.449 33.6484 199.148 33.6992 198.867 33.8008C198.586 33.8945 198.328 34.0352 198.094 34.2227C197.867 34.4023 197.672 34.6211 197.508 34.8789C197.344 35.1367 197.219 35.4297 197.133 35.7578H202.43ZM214.664 33.5312L212.484 34.6914C212.141 33.9883 211.715 33.6367 211.207 33.6367C210.965 33.6367 210.758 33.7188 210.586 33.8828C210.414 34.0391 210.328 34.2422 210.328 34.4922C210.328 34.9297 210.836 35.3633 211.852 35.793C213.25 36.3945 214.191 36.9492 214.676 37.457C215.16 37.9648 215.402 38.6484 215.402 39.5078C215.402 40.6094 214.996 41.5312 214.184 42.2734C213.395 42.9766 212.441 43.3281 211.324 43.3281C209.41 43.3281 208.055 42.3945 207.258 40.5273L209.508 39.4844C209.82 40.0312 210.059 40.3789 210.223 40.5273C210.543 40.8242 210.926 40.9727 211.371 40.9727C212.262 40.9727 212.707 40.5664 212.707 39.7539C212.707 39.2852 212.363 38.8477 211.676 38.4414C211.41 38.3086 211.145 38.1797 210.879 38.0547C210.613 37.9297 210.344 37.8008 210.07 37.668C209.305 37.293 208.766 36.918 208.453 36.543C208.055 36.0664 207.855 35.4531 207.855 34.7031C207.855 33.7109 208.195 32.8906 208.875 32.2422C209.57 31.5938 210.414 31.2695 211.406 31.2695C212.867 31.2695 213.953 32.0234 214.664 33.5312Z" fill="#FAFAFA"/>
</svg>
