<svg width="83" height="29" viewBox="0 0 83 29" fill="none" xmlns="http://www.w3.org/2000/svg">
<path d="M75.712 18.5904L75.9807 17.4465L76.9281 16.7603L75.7881 16.4908L75.098 15.5442L74.8323 16.6834L73.8819 17.3743L75.025 17.6392M79.2894 16.6806L79.8192 14.3945L81.7216 13.0205L79.4355 12.4907L78.0615 10.5883L77.5317 12.8744L75.6293 14.2484L77.9154 14.7783M74.6376 13.2596L74.9071 12.1196L75.8537 11.4296L74.7144 11.1639L74.0236 10.2135L73.7587 11.3565L72.8075 12.0435L73.9513 12.3122" fill="#FAFAFA"/>
<path d="M1.63005 21.9817C0.785492 21.9817 0.150921 21.2109 0.313189 20.3821L3.48363 4.1884C3.7359 2.89989 5.4975 2.70304 6.02796 3.90409L11.3219 15.8904L16.7973 3.92243C17.3452 2.72469 19.1109 2.95099 19.3391 4.24821L22.1815 20.4074C22.326 21.2289 21.694 21.9817 20.86 21.9817H18.6624C17.9213 21.9817 17.3205 21.381 17.3205 20.6399V9.64018L12.5083 20.2018C12.0282 21.2556 10.5284 21.2472 10.06 20.1882L5.3895 9.62694V20.6399C5.3895 21.381 4.78873 21.9817 4.04764 21.9817H1.63005Z" fill="#FAFAFA"/>
<path d="M25.3286 10.5537C25.3286 9.742 25.9866 9.08402 26.7982 9.08402H28.0598C28.6961 9.08402 29.2119 9.59981 29.2119 10.2361V10.2361C29.7592 9.66225 30.2448 9.26941 30.6685 9.05753C31.1011 8.83683 31.6131 8.72648 32.2046 8.72648C32.6097 8.72648 33.0243 8.79457 33.4483 8.93074C34.1712 9.16293 34.4051 10.0194 34.0656 10.6985V10.6985C33.6659 11.4978 32.6306 11.6522 31.7377 11.6151C31.7079 11.6139 31.6781 11.6132 31.6484 11.6132C30.024 11.6132 29.2119 12.8403 29.2119 15.2945V20.0401C29.2119 21.1124 28.3426 21.9817 27.2702 21.9817V21.9817C26.1979 21.9817 25.3286 21.1124 25.3286 20.0401V10.5537Z" fill="#FAFAFA"/>
<path d="M38.3125 9.07088C39.2662 9.07815 40.0355 9.85333 40.0355 10.8071V20.6163C40.0355 21.5752 39.2582 22.3525 38.2993 22.3525V22.3525C37.3404 22.3525 36.5631 21.5752 36.5631 20.6163V10.8071C36.5631 9.84299 37.3485 9.06352 38.3125 9.07088V9.07088Z" fill="#FAFAFA"/>
<path d="M47.6183 19.5849L43.5404 12.2019C42.7644 10.7971 43.7752 9.07393 45.38 9.06565V9.06565C46.3145 9.06084 47.1412 9.67005 47.4134 10.564L49.2205 16.4995L50.8419 10.6129C51.0907 9.70976 51.9121 9.08402 52.8488 9.08402V9.08402C54.4079 9.08402 55.4136 10.7347 54.6988 12.1202L46.622 27.7741C46.2336 28.527 45.4572 29 44.6101 29V29C42.691 29 41.6423 26.7621 42.8702 25.2874L47.6183 19.5849Z" fill="#FAFAFA"/>
<path d="M67.3356 10.5804C67.3356 9.75396 68.0056 9.08402 68.832 9.08402H68.9701C69.7574 9.08402 70.4328 9.64526 70.577 10.4192L72.4349 20.3942C72.5886 21.2195 71.9552 21.9817 71.1157 21.9817H68.6863C67.9403 21.9817 67.3356 21.377 67.3356 20.6311V20.6311C66.1085 21.7787 64.7887 22.3525 63.3763 22.3525C61.593 22.3525 60.1187 21.7081 58.9534 20.4192C57.797 19.1038 57.2187 17.4618 57.2187 15.4932C57.2187 13.5598 57.797 11.9487 58.9534 10.6598C60.1099 9.37093 61.5577 8.72648 63.2968 8.72648C64.7976 8.72648 66.1438 9.34444 67.3356 10.5804V10.5804ZM60.2644 15.4932C60.2644 16.7291 60.5954 17.7355 61.2575 18.5123C61.9373 19.298 62.7936 19.6909 63.8265 19.6909C64.93 19.6909 65.8216 19.3113 66.5014 18.5521C67.1811 17.7664 67.521 16.7688 67.521 15.5594C67.521 14.3499 67.1811 13.3524 66.5014 12.5667C65.8216 11.7986 64.9388 11.4146 63.853 11.4146C62.8289 11.4146 61.9726 11.803 61.284 12.5799C60.6043 13.3656 60.2644 14.3367 60.2644 15.4932Z" fill="#FAFAFA"/>
</svg>
