<svg width="24" height="24" viewBox="0 0 24 24" fill="none" xmlns="http://www.w3.org/2000/svg">
<path d="M11.5608 2.45383C11.842 2.73512 12 3.11658 12 3.51433C12 3.91207 11.842 4.29354 11.5608 4.57483L4.13582 11.9998L11.5608 19.4248C11.8341 19.7077 11.9852 20.0866 11.9818 20.4799C11.9784 20.8732 11.8207 21.2494 11.5425 21.5276C11.2644 21.8057 10.8882 21.9634 10.4949 21.9668C10.1016 21.9703 9.72272 21.8191 9.43982 21.5458L0.954321 13.0603C0.673114 12.779 0.515141 12.3976 0.515141 11.9998C0.515141 11.6021 0.673114 11.2206 0.954321 10.9393L9.43982 2.45383C9.72111 2.17262 10.1026 2.01465 10.5003 2.01465C10.8981 2.01465 11.2795 2.17262 11.5608 2.45383Z" fill="#2F2F35"/>
</svg>
