<svg width="62" height="30" viewBox="0 0 62 30" fill="none" xmlns="http://www.w3.org/2000/svg">
<path d="M11.421 26.5263C11.5263 27.0526 11.7858 27.8603 12.0526 26.5263C12.3684 24.9473 12.3684 23.9999 13 25.2631" stroke="#FAFAFA" stroke-width="0.442105"/>
<path d="M13.0001 26.4792C13.1053 27.0055 13.6316 27.4727 13.6316 26.4792C13.6316 24.869 13.9474 24.3148 14.2632 25.2622" stroke="#FAFAFA" stroke-width="0.442105"/>
<path d="M14.2632 26.3118C14.3685 26.8381 14.8948 27.3053 14.8948 26.3118C14.8948 24.7015 15.2106 24.6314 15.5264 25.263" stroke="#FAFAFA" stroke-width="0.442105"/>
<path d="M9.84216 26.5259L61.0001 25.8943L9.84216 25.2627" stroke="#FAFAFA" stroke-width="0.631579"/>
<path d="M9.84219 25.2628C9.63166 25.7891 9.84218 26.5259 10.158 27.1575C10.4739 27.7891 10.6897 25.2466 10.7896 24.947C11.1053 23.9996 11.4211 24.6312 11.4211 25.2627" stroke="#FAFAFA" stroke-width="0.442105"/>
<path d="M3.42438 25.0403C5.53917 24.3147 8.71134 24.6577 10.4736 25.2624L10.4736 26.5522C10.4736 26.5522 7.30045 27.6813 3.42432 26.8545C2.91736 26.7772 2.54317 25.3427 3.42438 25.0403Z" fill="#FAFAFA" stroke="#FAFAFA" stroke-width="0.315789"/>
<path d="M4.15789 25.1361L2.24729 24.8304C1.59285 24.7257 1 25.2313 1 25.894C1 26.5568 1.59286 27.0623 2.2473 26.9576L4.15789 26.6519V25.1361Z" fill="#FAFAFA" stroke="#FAFAFA" stroke-width="0.315789"/>
<path d="M5.45066 23L8.6579 6.61842L13.8882 18.4605L19.3059 6.61842L22.1875 23H19.8289L18.3586 13.8026L13.8487 23.7007L9.46711 13.7928L7.82895 23H5.45066ZM25 13.3882H27.2204V14.2467C27.6283 13.8191 27.9901 13.5263 28.3059 13.3684C28.6283 13.2039 29.0099 13.1217 29.4507 13.1217C30.0362 13.1217 30.648 13.3125 31.2862 13.6941L30.2697 15.727C29.8487 15.4243 29.4375 15.273 29.0362 15.273C27.8257 15.273 27.2204 16.1875 27.2204 18.0164V23H25V13.3882ZM35.0954 13.3882V23H32.875V13.3882H35.0954ZM32.5395 9.39145C32.5395 9.00329 32.6809 8.66776 32.9638 8.38487C33.2467 8.10197 33.5855 7.96053 33.9803 7.96053C34.3816 7.96053 34.7237 8.10197 35.0066 8.38487C35.2895 8.66118 35.4309 9 35.4309 9.40132C35.4309 9.80263 35.2895 10.1447 35.0066 10.4276C34.7303 10.7105 34.3914 10.852 33.9901 10.852C33.5888 10.852 33.2467 10.7105 32.9638 10.4276C32.6809 10.1447 32.5395 9.79934 32.5395 9.39145ZM40.9375 21.2138L36.6151 13.3882H39.1908L42.1316 18.9145L44.875 13.3882H47.3816L39.7237 28.2303H37.1875L40.9375 21.2138ZM55.6316 13.3882H57.8618V23H55.6316V21.9934C54.7171 22.8487 53.7336 23.2763 52.6809 23.2763C51.352 23.2763 50.2533 22.7961 49.3849 21.8355C48.523 20.8553 48.0921 19.6316 48.0921 18.1645C48.0921 16.7237 48.523 15.523 49.3849 14.5625C50.2467 13.602 51.3257 13.1217 52.6217 13.1217C53.7401 13.1217 54.7434 13.5822 55.6316 14.5033V13.3882ZM50.3618 18.1645C50.3618 19.0855 50.6086 19.8355 51.102 20.4145C51.6086 21 52.2467 21.2928 53.0164 21.2928C53.8388 21.2928 54.5033 21.0099 55.0099 20.4441C55.5164 19.8586 55.7697 19.1151 55.7697 18.2138C55.7697 17.3125 55.5164 16.5691 55.0099 15.9836C54.5033 15.4112 53.8454 15.125 53.0362 15.125C52.273 15.125 51.6349 15.4145 51.1217 15.9934C50.6151 16.5789 50.3618 17.3026 50.3618 18.1645Z" fill="#FAFAFA"/>
</svg>
