<svg width="269" height="111" viewBox="0 0 269 111" fill="none" xmlns="http://www.w3.org/2000/svg">
<path d="M0.772811 84L17.1832 0.180912L43.9447 60.773L71.6656 0.180912L86.4097 84H74.3417L66.8182 36.9401L43.7427 87.585L21.3236 36.8896L12.9417 84H0.772811ZM100.8 34.8194H112.161V39.2123C114.248 37.0243 116.1 35.5263 117.716 34.7184C119.365 33.8769 121.317 33.4561 123.573 33.4561C126.569 33.4561 129.699 34.4323 132.965 36.3847L127.764 46.7863C125.609 45.2379 123.506 44.4636 121.452 44.4636C115.258 44.4636 112.161 49.1427 112.161 58.5008V84H100.8V34.8194ZM152.455 34.8194V84H141.094V34.8194H152.455ZM139.377 14.3696C139.377 12.3835 140.101 10.6667 141.548 9.21924C142.996 7.77176 144.73 7.04802 146.749 7.04802C148.803 7.04802 150.553 7.77176 152.001 9.21924C153.448 10.6331 154.172 12.3667 154.172 14.4201C154.172 16.4735 153.448 18.2239 152.001 19.6714C150.587 21.1189 148.853 21.8426 146.8 21.8426C144.746 21.8426 142.996 21.1189 141.548 19.6714C140.101 18.2239 139.377 16.4566 139.377 14.3696ZM182.347 74.8607L160.231 34.8194H173.41L188.457 63.0957L202.494 34.8194H215.319L176.136 110.762H163.16L182.347 74.8607ZM257.532 34.8194H268.943V84H257.532V78.8497C252.853 83.2258 247.82 85.4138 242.434 85.4138C235.635 85.4138 230.013 82.9565 225.57 78.0418C221.16 73.0261 218.955 66.7649 218.955 59.2582C218.955 51.8862 221.16 45.7428 225.57 40.8281C229.979 35.9134 235.5 33.4561 242.131 33.4561C247.854 33.4561 252.987 35.8124 257.532 40.5252V34.8194ZM230.568 59.2582C230.568 63.9709 231.831 67.8084 234.355 70.7707C236.947 73.7667 240.213 75.2646 244.151 75.2646C248.359 75.2646 251.759 73.8172 254.351 70.9222C256.943 67.9263 258.239 64.1224 258.239 59.5107C258.239 54.899 256.943 51.0951 254.351 48.0992C251.759 45.1706 248.393 43.7062 244.252 43.7062C240.347 43.7062 237.082 45.1874 234.456 48.1497C231.864 51.1456 230.568 54.8485 230.568 59.2582Z" fill="#FAFAFA"/>
</svg>
