<svg width="12" height="20" viewBox="0 0 12 20" fill="none" xmlns="http://www.w3.org/2000/svg">
<path d="M0.939546 0.453828C0.65834 0.73512 0.500366 1.11658 0.500366 1.51433C0.500366 1.91207 0.65834 2.29354 0.939546 2.57483L8.36455 9.99983L0.939546 17.4248C0.666309 17.7077 0.515117 18.0866 0.518534 18.4799C0.521952 18.8732 0.679706 19.2494 0.957818 19.5276C1.23593 19.8057 1.61215 19.9634 2.00544 19.9668C2.39874 19.9703 2.77764 19.8191 3.06055 19.5458L11.546 11.0603C11.8273 10.779 11.9852 10.3976 11.9852 9.99983C11.9852 9.60208 11.8273 9.22062 11.546 8.93933L3.06055 0.453828C2.77925 0.172622 2.39779 0.0146484 2.00005 0.0146484C1.6023 0.0146484 1.22084 0.172622 0.939546 0.453828Z" fill="#FAFAFA"/>
</svg>
